<svg width="686" height="373" viewBox="0 0 686 373" fill="none" xmlns="http://www.w3.org/2000/svg">
<path d="M795.712 -292C786.113 -243.438 773.544 -195.247 754.035 -149.751C747.711 -135.001 740.606 -120.459 730.98 -107.618C711.351 -81.4315 682.565 -63.9141 658.511 -41.7217C627.961 -13.5377 605.069 22.771 592.388 62.3281C582.847 92.0931 575.429 128.956 556.816 154.669C539.907 178.027 499.753 180.804 474.639 191.171C448.916 201.79 426.782 220.419 411.125 243.346C402.924 255.357 396.462 268.581 392.189 282.49C388.104 295.791 389.141 312.055 372.003 315.313C366.339 316.39 360.515 315.193 354.749 315.204C334.708 315.244 316.077 332.017 313.941 351.943M795.039 -290.112C786.366 -241.935 774.298 -193.861 754.921 -148.591C748.477 -133.51 741.027 -118.858 731.398 -105.622C719.762 -89.6694 704.885 -76.7244 689.61 -64.095C679.183 -55.4731 668.569 -46.9992 658.67 -37.8181C639.115 -19.6795 622.363 1.44645 609.081 24.3223C601.315 37.6987 594.739 51.6736 589.495 66.0336C585.795 76.105 582.329 86.9657 578.581 97.9077C573.294 113.282 567.441 128.816 559.656 142.73C556.866 147.729 553.828 152.519 550.476 156.998C536.61 175.504 509.006 181.965 485.869 189.499C479.657 191.509 473.766 193.595 468.543 196.015C447.022 205.909 428.278 221.506 413.952 240.486C411.484 243.753 409.147 247.122 406.947 250.582C399.101 262.921 392.948 276.444 388.764 290.603C386.287 298.989 385.658 308.466 381.493 315.357C378.93 319.6 375.026 322.832 368.558 324.264C362.907 325.514 357.086 324.587 351.306 324.804C331.23 325.542 312.387 342.385 309.818 362.507M794.365 -288.225C786.619 -240.432 775.051 -192.476 755.804 -147.431C749.24 -132.016 741.446 -117.256 731.813 -103.629C720.207 -87.2881 705.355 -73.8983 690.023 -60.882C679.555 -51.9929 668.861 -43.2772 658.822 -33.9147C638.989 -15.4245 621.716 5.80695 607.689 28.53C599.488 41.8148 592.406 55.6124 586.596 69.7389C582.475 79.6547 578.572 90.3096 574.391 101.028C568.48 116.093 562.004 131.288 553.736 145.101C550.782 150.061 547.602 154.835 544.128 159.331C529.725 177.932 502.284 185.23 479.476 193.665C473.358 195.902 467.577 198.235 462.443 200.865C441.38 211.656 423.189 227.898 409.463 247.444C407.1 250.805 404.868 254.27 402.766 257.822C395.273 270.49 389.43 284.311 385.337 298.72C382.913 307.258 382.22 316.842 378.021 323.906C375.433 328.259 371.514 331.596 365.112 333.218C359.472 334.646 353.656 333.986 347.862 334.408C327.753 335.842 308.694 352.759 305.695 373.072M793.692 -286.34C786.87 -238.93 775.806 -191.09 756.69 -146.273C750.004 -130.527 741.867 -115.658 732.232 -101.636C720.657 -84.9067 705.83 -71.0735 690.441 -57.6702C679.933 -48.5125 669.161 -39.5564 658.978 -30.014C638.868 -11.1723 621.072 10.1647 606.301 32.7321C597.664 45.9281 590.114 59.5642 583.698 73.4401C579.181 83.2117 574.813 93.6494 570.204 104.142C563.667 118.899 556.571 133.753 547.819 147.465C544.702 152.382 541.377 157.145 537.787 161.656C522.845 180.352 495.592 188.546 473.087 197.822C467.068 200.302 461.387 202.857 456.346 205.704C435.724 217.355 418.102 234.283 404.979 254.392C402.719 257.851 400.59 261.408 398.589 265.052C391.452 278.048 385.918 292.167 381.916 306.826C379.545 315.517 378.79 325.206 374.555 332.443C371.943 336.908 368.011 340.352 361.668 342.161C356.041 343.768 350.229 343.373 344.42 344C324.275 346.132 305.002 363.117 301.572 383.628M793.019 -284.452C787.123 -237.427 776.56 -189.703 757.578 -145.112C750.772 -129.032 742.318 -114.038 732.651 -99.6411C721.139 -82.5012 706.305 -68.2472 690.861 -54.4542C680.313 -45.0307 669.461 -35.8313 659.137 -26.109C638.75 -6.91431 620.434 14.5282 604.917 36.9414C595.844 50.0458 587.797 63.5131 580.806 77.1471C575.874 86.7687 571.062 96.9935 566.022 107.265C558.861 121.713 551.142 136.228 541.906 149.838C538.625 154.715 535.157 159.464 531.448 163.99C515.968 182.78 488.888 191.827 466.7 201.987C460.777 204.699 455.2 207.485 450.253 210.551C430.074 223.058 413.019 240.673 400.497 261.348C398.339 264.902 396.313 268.554 394.413 272.289C387.631 285.612 382.406 300.031 378.494 314.939C376.176 323.782 375.357 333.575 371.087 340.988C368.452 345.564 364.505 349.117 358.226 351.112C352.61 352.898 346.803 352.768 340.981 353.6C320.8 356.43 301.314 373.487 297.453 394.189M792.346 -282.567C787.378 -235.926 777.316 -188.318 758.462 -143.953C751.535 -127.541 742.745 -112.434 733.067 -97.6489C721.592 -80.1171 706.777 -65.4226 691.276 -51.2426C680.688 -41.5505 669.757 -32.1108 659.29 -22.2085C638.627 -2.66226 619.788 18.8845 603.527 41.1449C594.019 54.1604 585.473 67.4547 577.909 80.8482C572.561 90.3171 567.33 100.346 561.834 110.381C554.081 124.539 545.676 138.671 535.988 152.203C532.532 157.031 528.932 161.773 525.102 166.316C509.084 185.202 482.177 195.097 460.307 206.147C454.481 209.09 449.007 212.11 444.153 215.394C424.415 228.752 407.93 247.058 396.009 268.3C393.956 271.95 392.032 275.695 390.23 279.524C383.805 293.177 378.888 307.895 375.066 323.052C372.801 332.048 371.919 341.947 367.613 349.533C364.955 354.22 360.993 357.881 354.778 360.062C349.173 362.028 343.373 362.163 337.535 363.199C317.321 366.726 297.621 383.855 293.327 404.753M791.673 -280.679C787.631 -234.422 778.071 -186.932 759.348 -142.793C752.302 -126.049 743.171 -110.831 733.486 -95.6538C722.048 -77.7301 707.25 -62.5963 691.694 -48.028C681.064 -38.0687 670.055 -28.3858 659.448 -18.305C638.507 1.59419 619.148 23.2464 602.14 45.3512C592.196 58.2752 583.15 71.4007 575.014 84.5523C569.25 93.8698 563.578 103.69 557.649 113.498C549.275 127.353 540.24 141.136 530.072 154.571C526.452 159.356 522.711 164.088 518.76 168.644C502.205 187.624 475.472 198.368 453.917 210.307C448.188 213.481 442.818 216.73 438.057 220.238C418.762 234.446 402.844 253.445 391.523 275.253C389.573 278.998 387.753 282.837 386.051 286.757C379.981 300.737 375.373 315.754 371.641 331.162C369.429 340.31 368.484 350.315 364.142 358.074C361.462 362.871 357.483 366.647 351.332 369.011C345.737 371.16 339.942 371.555 334.092 372.795C313.842 377.019 293.926 394.22 289.205 415.311M790.999 -278.792C787.881 -232.919 778.823 -185.547 760.231 -141.633C753.064 -124.557 743.593 -109.229 733.9 -93.6601C722.498 -75.3458 707.72 -59.7702 692.107 -44.8151C681.438 -34.5871 670.35 -24.6637 659.6 -14.403C638.382 5.84778 618.499 27.6055 600.748 49.5561C590.371 62.3899 580.823 75.3452 572.114 88.2562C565.931 97.4238 559.82 107.035 553.459 116.618C544.462 130.167 534.8 143.603 524.152 156.94C520.368 161.681 516.483 166.402 512.413 170.974C495.318 190.05 468.761 201.639 447.523 214.468C441.89 217.871 436.624 221.353 431.955 225.082C413.102 240.135 397.752 259.834 387.034 282.207C385.186 286.048 383.471 289.983 381.868 293.992C376.153 308.3 371.854 323.616 368.211 339.274C366.052 348.574 365.044 358.686 360.667 366.617C357.963 371.524 353.97 375.415 347.881 377.959C342.296 380.292 336.508 380.948 330.644 382.392C310.359 387.311 290.231 404.585 285.075 425.871M790.326 -276.907C788.136 -231.418 779.579 -184.163 761.119 -140.474C753.831 -123.064 744.019 -107.628 734.32 -91.6664C722.952 -72.963 708.195 -56.9441 692.528 -41.6006C681.819 -31.1067 670.652 -20.9402 659.759 -10.4982C638.264 10.1055 617.859 31.9674 599.364 53.7651C588.55 66.5087 578.499 79.2925 569.221 91.963C562.619 100.979 556.071 110.382 549.278 119.738C539.659 132.984 529.37 146.071 518.24 159.31C514.289 164.01 510.264 168.717 506.074 173.305C488.442 192.475 462.058 204.907 441.136 218.631C435.598 222.263 430.437 225.975 425.861 229.925C407.447 245.822 392.669 266.221 382.554 289.159C380.811 293.096 379.198 297.124 377.693 301.227C372.334 315.864 368.343 331.479 364.792 347.387C362.686 356.839 361.614 367.055 357.202 375.162C354.474 380.18 350.466 384.188 344.441 386.909C338.867 389.427 333.084 390.341 327.207 391.992C306.887 397.609 286.545 414.955 280.96 436.433M789.653 -275.019C788.389 -229.915 780.334 -182.776 762.003 -139.312C754.595 -121.571 744.443 -106.024 734.735 -89.6699C723.401 -70.5774 708.665 -54.1151 692.942 -38.3846C682.192 -27.6222 670.944 -17.2153 659.912 -6.59468C638.141 14.3606 617.214 36.3294 597.973 57.9701C586.725 70.6235 576.171 83.2356 566.324 95.6671C559.302 104.532 552.315 113.727 545.089 122.856C534.847 135.797 523.933 148.537 512.32 161.679C508.206 166.336 504.037 171.032 499.727 175.635C481.556 194.901 455.345 208.175 434.742 222.795C429.301 226.655 424.242 230.6 419.76 234.772C401.785 251.507 387.579 272.611 378.063 296.115C376.422 300.147 374.913 304.269 373.51 308.464C368.506 323.428 364.826 339.343 361.362 355.501C359.311 365.105 358.174 375.428 353.727 383.708C350.976 388.838 346.953 392.962 340.991 395.862C335.426 398.567 329.651 399.739 323.758 401.593C303.403 407.907 282.845 425.324 276.829 446.997M788.98 -273.133C788.642 -228.414 781.089 -181.391 762.889 -138.154C755.361 -120.08 744.868 -104.425 735.154 -87.6775C723.853 -68.1945 709.141 -51.2916 693.358 -35.1714C682.568 -24.1418 671.242 -13.4931 660.067 -2.69116C638.019 18.6171 616.569 40.6901 596.584 62.178C584.899 74.7411 573.841 87.1802 563.428 99.3726C555.985 108.085 548.561 117.074 540.903 125.978C530.036 138.614 518.499 151.007 506.406 164.051C502.127 168.665 497.815 173.35 493.386 177.967C474.678 197.327 448.64 211.44 428.354 226.959C423.009 231.049 418.053 235.223 413.664 239.619C396.126 257.19 382.493 279.001 373.579 303.071C372.042 307.201 370.635 311.416 369.333 315.702C364.684 330.994 361.312 347.209 357.94 363.614C355.941 373.37 354.742 383.799 350.259 392.253C347.485 397.494 343.448 401.737 337.549 404.812C331.995 407.706 326.228 409.145 320.318 411.193C299.943 418.248 279.157 435.693 272.709 457.561M788.306 -271.247C788.893 -226.91 781.841 -180.005 763.774 -136.996C756.124 -118.589 745.289 -102.824 735.57 -85.6853C724.302 -65.8146 709.612 -48.4669 693.774 -31.9598C682.943 -20.6616 671.539 -9.77249 660.22 1.20935C637.895 22.8692 615.922 45.0477 595.194 66.3814C583.075 78.8544 571.509 91.1218 560.53 103.074C552.667 111.633 544.804 120.415 536.716 129.092C525.224 141.422 513.065 153.471 500.487 166.416C496.045 170.989 491.591 175.659 487.04 180.294C467.794 199.749 441.926 214.7 421.96 231.118C416.71 235.434 411.857 239.839 407.563 244.461C390.461 262.865 377.403 285.388 369.089 310.023C367.656 314.247 366.355 318.557 365.15 322.935C360.856 338.555 357.793 355.069 354.512 371.724C352.566 381.633 351.302 392.167 346.786 400.794C343.989 406.145 339.938 410.511 334.099 413.759C328.557 416.843 322.796 418.536 316.87 420.787C296.462 428.538 275.46 446.057 268.583 468.117M787.633 -269.359C789.147 -225.407 782.597 -178.617 764.66 -135.833C756.891 -117.094 745.713 -101.221 735.989 -83.6874C724.753 -63.429 710.085 -45.6379 694.191 -28.7424C683.321 -17.1784 671.838 -6.04606 660.378 5.11571C637.776 27.1285 615.282 49.4125 593.809 70.592C581.253 82.9748 569.182 95.0691 557.635 106.783C549.351 115.19 541.05 123.765 532.531 132.217C520.413 144.241 507.632 155.944 494.572 168.789C489.965 173.319 485.367 177.978 480.7 182.628C460.916 202.178 435.218 217.965 415.574 235.285C410.42 239.828 405.669 244.463 401.471 249.31C384.802 268.545 372.321 291.779 364.61 316.981C363.28 321.302 362.081 325.705 360.976 330.176C357.039 346.125 354.283 362.936 351.092 379.843C349.2 389.904 347.874 400.543 343.32 409.345C340.5 414.805 336.434 419.295 330.659 422.716C325.129 425.991 319.372 427.938 313.432 430.394C292.991 438.843 271.773 456.431 264.463 478.687M786.96 -267.474C789.399 -223.906 783.266 -177.27 765.546 -134.675C757.618 -115.62 746.133 -99.6225 736.406 -81.6964C725.201 -61.0503 710.558 -42.8145 694.609 -25.5307C683.699 -13.698 672.135 -2.32393 660.534 9.01638C637.655 31.3807 614.639 53.7689 592.42 74.7941C579.43 87.0867 566.849 99.0051 554.739 110.483C546.032 118.735 537.292 127.103 528.346 135.331C515.602 147.05 502.201 158.407 488.656 171.154C483.887 175.642 479.144 180.289 474.357 184.955C454.034 204.6 428.506 221.22 409.183 239.443C404.125 244.213 399.476 249.079 395.372 254.151C379.135 274.216 367.233 298.163 360.123 323.929C358.895 328.346 357.8 332.843 356.796 337.406C353.214 353.682 350.767 370.793 347.666 387.949C345.826 398.162 344.436 408.908 339.848 417.882C337.004 423.454 332.927 428.066 327.212 431.659C321.695 435.127 315.943 437.326 309.99 439.985C289.516 449.132 268.081 466.792 260.342 489.241M786.286 -265.587C789.653 -222.403 784.019 -175.885 766.429 -133.515C758.38 -114.128 746.553 -98.0232 736.821 -79.7027C725.646 -58.6689 711.028 -39.9883 695.023 -22.3176C684.071 -10.2177 672.431 1.39823 660.687 12.9199C637.529 35.6357 613.994 58.1309 591.029 79.0019C577.602 91.2043 564.513 102.948 551.84 114.189C542.708 122.287 533.534 130.448 524.156 138.451C510.785 149.864 496.766 160.878 482.735 173.525C477.802 177.972 472.918 182.605 468.01 187.285C447.149 207.025 421.789 224.48 402.788 243.606C397.824 248.603 393.279 253.699 389.269 258.996C373.459 279.891 362.141 304.552 355.632 330.885C354.508 335.396 353.516 339.987 352.612 344.642C349.386 361.247 347.248 378.658 344.236 396.063C342.448 406.427 340.996 417.279 336.373 426.428C333.506 432.111 329.416 436.849 323.763 440.611C318.258 444.274 312.511 446.72 306.542 449.585C286.034 459.429 264.386 477.16 256.213 499.803M785.615 -263.7C789.906 -220.9 784.777 -174.499 767.316 -132.356C759.146 -112.637 746.975 -96.424 737.241 -77.7092C726.096 -56.2877 711.504 -37.1622 695.442 -19.1046C684.45 -6.73608 672.731 5.1202 660.845 16.8204C637.411 39.8878 613.352 62.4885 589.643 83.2067C575.782 95.3189 562.183 106.887 548.947 117.891C539.393 125.835 529.78 133.789 519.972 141.568C505.974 152.671 491.336 163.346 476.82 175.891C471.725 180.296 466.697 184.917 461.669 189.611C440.27 209.447 415.077 227.733 396.4 247.764C391.529 252.987 387.087 258.314 383.175 263.839C367.792 285.559 357.056 310.939 351.149 337.837C350.129 342.445 349.241 347.131 348.436 351.876C345.565 368.809 343.737 386.518 340.815 404.175C339.08 414.691 337.566 425.648 332.907 434.971C330.016 440.766 325.915 445.63 320.321 449.561C314.83 453.418 309.085 456.115 303.102 459.184C282.56 469.725 260.696 487.528 252.094 510.366M784.941 -261.814C790.157 -219.398 785.614 -173.078 768.2 -131.196C759.948 -111.126 747.393 -94.8232 737.655 -75.7153C726.541 -53.9062 711.975 -34.3373 695.856 -15.8914C684.824 -3.25704 673.025 8.84107 660.997 20.724C637.286 44.1443 612.705 66.8491 588.252 87.4117C573.955 99.4336 559.847 110.825 546.046 121.595C536.067 129.382 526.019 137.132 515.783 144.687C501.158 155.484 485.901 165.815 470.901 178.26C465.642 182.624 460.469 187.232 455.322 191.942C433.386 211.871 408.358 230.989 390.006 251.928C385.231 257.378 380.889 262.935 377.074 268.684C362.117 291.23 351.966 317.328 346.66 344.791C345.744 349.494 344.958 354.275 344.252 359.113C341.737 376.373 340.216 394.382 337.385 412.288C335.703 422.956 334.125 434.02 329.432 443.515C326.518 449.418 322.406 454.411 316.87 458.509C311.394 462.561 305.645 465.495 299.654 468.782C279.055 479.978 257 497.894 247.965 520.925M784.266 -259.927C790.411 -217.895 786.369 -171.692 769.086 -130.036C760.715 -109.635 747.816 -93.2236 738.074 -73.72C726.988 -51.5246 712.448 -31.511 696.275 -12.6753C685.204 0.227647 673.324 12.5675 661.154 24.6289C637.167 48.4009 612.064 71.2127 586.865 91.621C572.133 103.553 557.514 114.766 543.152 125.302C532.749 132.933 522.263 140.475 511.598 147.808C496.345 158.296 480.47 168.288 464.985 180.631C459.564 184.952 454.248 189.547 448.98 194.273C426.505 214.298 401.641 234.245 383.617 256.09C378.935 261.766 374.696 267.551 370.978 273.528C356.443 296.9 346.881 323.715 342.176 351.745C341.363 356.545 340.681 361.418 340.074 366.347C337.913 383.935 336.703 402.242 333.961 420.399C332.332 431.221 330.69 442.389 325.963 452.058C323.025 458.072 318.904 463.194 313.427 467.458C307.967 471.707 302.217 474.887 296.212 478.379C275.579 490.272 253.308 508.261 243.843 531.487M783.595 -258.04C790.665 -216.393 787.125 -170.307 769.973 -128.877C761.482 -108.143 748.237 -91.6256 738.493 -71.7277C727.436 -49.1459 712.923 -28.6862 696.694 -9.46363C685.58 3.70657 673.623 16.2883 661.313 28.5297C637.047 52.6546 611.422 75.5705 585.481 95.8246C570.312 107.666 555.185 118.7 540.26 129.004C529.432 136.478 518.51 143.815 507.416 150.923C491.534 161.101 475.044 170.754 459.074 182.997C453.488 187.278 448.029 191.859 442.641 196.6C419.627 216.721 394.926 237.498 377.23 260.25C372.641 266.149 368.503 272.167 364.884 278.371C350.767 302.566 341.798 330.101 337.693 358.695C336.983 363.59 336.405 368.558 335.898 373.579C334.093 391.494 333.192 410.102 330.54 428.506C328.964 439.479 327.259 450.754 322.496 460.596C319.536 466.721 315.408 471.971 309.984 476.403C304.543 480.85 298.792 484.277 292.773 487.973C272.103 500.562 249.62 518.622 239.724 542.043M782.921 -256.154C790.917 -214.892 787.878 -168.922 770.856 -127.717C762.244 -106.651 748.652 -90.0251 738.908 -69.7313C727.879 -46.7633 713.393 -25.8574 697.107 -6.24782C685.954 7.191 673.918 20.0131 661.464 32.4344C636.922 56.9108 610.775 79.9337 584.086 100.032C568.484 111.784 552.844 122.638 537.358 132.709C526.106 140.025 514.746 147.157 503.225 154.044C486.715 163.913 469.608 173.228 453.152 185.368C447.404 189.607 441.8 194.175 436.294 198.931C412.743 219.146 388.202 240.753 370.836 264.414C366.34 270.54 362.304 276.786 358.782 283.217C345.083 308.237 336.705 336.492 333.204 365.652C332.599 370.643 332.122 375.706 331.715 380.817C330.267 399.062 329.673 417.968 327.112 436.621C325.589 447.747 323.822 459.127 319.024 469.144C316.04 475.381 311.904 480.761 306.538 485.357C301.112 490.004 295.361 493.674 289.329 497.577C268.625 510.863 245.927 528.996 235.599 552.61M782.248 -254.269C791.17 -213.389 788.632 -167.536 771.742 -126.559C763.01 -105.16 749.071 -88.4286 739.325 -67.7405C728.324 -44.3848 713.865 -23.0341 697.524 -3.03765C686.329 10.6684 674.216 23.7323 661.621 36.3336C636.801 61.163 610.132 84.29 582.701 104.234C566.662 115.895 550.513 126.57 534.465 136.409C522.788 143.567 510.992 150.492 499.041 157.158C481.902 166.717 464.179 175.694 447.237 187.732C441.326 191.933 435.578 196.484 429.951 201.257C405.861 221.568 381.48 244.004 364.445 268.572C360.042 274.922 356.107 281.4 352.686 288.058C339.404 313.904 331.62 342.876 328.718 372.602C328.215 377.688 327.844 382.844 327.536 388.049C326.441 406.623 326.158 425.826 323.687 444.731C322.218 456.008 320.384 467.495 315.553 477.686C312.546 484.034 308.404 489.545 303.091 494.303C297.685 499.149 291.932 503.065 285.884 507.171C265.145 521.155 242.234 539.359 231.475 563.167M781.575 -252.38C791.423 -211.885 789.386 -166.15 772.628 -125.396C763.774 -103.665 749.489 -86.8279 739.744 -65.7426C728.77 -42.002 714.34 -20.2036 697.943 0.181161C686.71 14.1544 674.515 27.4615 661.778 40.2412C636.682 65.4222 609.489 88.6547 581.314 108.446C564.841 120.017 548.179 130.511 531.568 140.12C519.468 147.12 507.235 153.839 494.855 160.283C477.089 169.529 458.748 178.172 441.32 190.107C435.246 194.266 429.354 198.805 423.608 203.592C398.98 223.997 374.757 247.262 358.054 272.739C353.743 279.316 349.908 286.025 346.587 292.908C333.718 319.577 326.532 349.269 324.231 379.561C323.832 384.745 323.564 389.993 323.356 395.29C322.617 414.192 322.642 433.695 320.26 452.848C318.845 464.278 316.949 475.87 312.081 486.235C309.051 492.691 304.903 498.334 299.644 503.259C294.258 508.303 288.499 512.464 282.44 516.775C261.666 531.457 238.541 549.733 227.35 573.733M780.901 -250.494C791.675 -210.384 790.141 -164.763 773.513 -124.237C764.54 -102.174 749.907 -85.23 740.16 -63.7503C729.211 -39.6235 714.812 -17.3803 698.358 3.39281C687.083 17.6333 674.81 31.1807 661.932 44.1432C636.558 69.6771 608.846 93.0139 579.924 112.65C563.014 124.13 545.842 134.442 528.671 143.821C516.145 150.661 503.475 157.177 490.668 163.4C472.273 172.335 453.318 180.643 435.403 192.473C429.167 196.593 423.13 201.118 417.265 205.921C392.098 226.421 368.032 250.513 351.664 276.899C347.445 283.701 343.711 290.639 340.489 297.75C328.033 325.244 321.445 355.655 319.747 386.512C319.452 391.79 319.285 397.135 319.179 402.523C318.795 421.753 319.128 441.554 316.838 460.959C315.475 472.54 313.515 484.239 308.613 494.777C305.559 501.345 301.408 507.118 296.201 512.207C290.836 517.452 285.074 521.857 278.999 526.371C258.191 541.749 234.849 560.097 223.23 584.292M780.228 -248.608C791.929 -208.882 790.895 -163.38 774.397 -123.079C765.304 -100.683 750.281 -83.6519 740.576 -61.7579C729.608 -37.2662 715.283 -14.5569 698.773 6.60456C687.459 21.1137 675.107 34.9016 662.086 48.0426C636.436 73.9281 608.201 97.3703 578.534 116.853C561.19 128.244 543.507 138.373 525.773 147.522C512.823 154.203 499.716 160.515 486.481 166.514C467.459 175.138 447.91 183.148 429.484 194.838C423.092 198.928 416.906 203.427 410.92 208.246C385.217 228.841 361.306 253.763 345.273 281.058C341.145 288.085 337.514 295.254 334.391 302.592C322.347 330.909 316.356 362.04 315.259 393.462C315.066 398.836 315.006 404.274 314.996 409.755C314.968 429.313 315.612 449.414 313.41 469.069C312.1 480.803 310.077 492.606 305.139 503.318C302.063 509.998 297.907 515.902 292.753 521.154C287.409 526.6 281.643 531.249 275.554 535.968C254.71 552.044 231.156 570.462 219.105 594.853M779.555 -246.72C792.181 -207.377 791.65 -161.993 775.283 -121.918C766.07 -99.1893 750.703 -82.0497 740.995 -59.7628C730.057 -34.8833 715.757 -11.7292 699.191 9.81916C687.835 24.5955 675.406 38.6252 662.243 51.9475C636.316 78.186 607.56 101.734 577.148 121.061C559.367 132.362 541.176 142.308 522.88 151.228C509.504 157.749 495.951 163.831 482.296 169.634C462.633 177.911 442.477 185.619 423.57 197.207C417.016 201.256 410.684 205.742 404.578 210.576C378.336 231.267 354.582 257.017 338.883 285.221C334.847 292.472 331.315 299.872 328.296 307.437C316.662 336.579 311.272 368.429 310.777 400.418C310.687 405.888 310.73 411.42 310.82 416.992C311.147 436.878 312.099 457.279 309.987 477.182C308.731 489.068 306.645 500.976 301.671 511.863C298.571 518.654 294.412 524.689 289.308 530.105C283.987 535.751 278.214 540.643 272.112 545.567C251.234 562.34 227.464 580.831 214.981 605.415M778.882 -244.835C792.434 -205.877 792.405 -160.609 776.171 -120.759C766.836 -97.6986 751.126 -80.4504 741.414 -57.7706C730.507 -32.502 716.231 -8.90453 699.61 13.0322C688.216 28.0757 675.705 42.3487 662.4 55.8495C636.195 82.4409 606.917 106.093 575.761 125.267C557.546 136.478 538.842 146.24 519.984 154.933C506.184 161.293 492.196 167.173 478.11 172.756C457.82 180.723 437.045 188.091 417.653 199.579C410.934 203.587 404.46 208.06 398.235 212.908C371.455 233.693 347.853 260.272 332.492 289.384C328.547 296.862 325.115 304.492 322.197 312.284C310.971 342.251 306.184 374.819 306.289 407.373C306.303 412.938 306.447 418.565 306.639 424.229C307.321 444.442 308.582 465.143 306.562 485.295C305.359 497.333 303.21 509.348 298.201 520.408C295.077 527.309 290.915 533.477 285.863 539.055C280.567 544.904 274.786 550.038 268.668 555.166C247.755 572.636 223.772 591.197 210.859 615.976M778.208 -242.949C792.687 -204.374 793.158 -159.224 777.054 -119.599C767.599 -96.205 751.543 -78.8497 741.829 -55.7754C730.953 -30.1192 716.702 -6.07701 700.025 16.2467C688.591 31.5588 676.001 46.0721 662.555 59.7529C636.074 86.6958 606.272 110.453 574.372 129.472C555.721 140.592 536.509 150.172 517.087 158.635C502.863 164.836 488.441 170.514 473.925 175.871C453.009 183.529 431.612 190.559 411.739 201.945C404.857 205.911 398.238 210.372 391.893 215.236C364.575 236.116 341.127 263.525 326.104 293.543C322.249 301.247 318.918 309.107 316.101 317.125C305.281 347.917 301.098 381.203 301.805 414.324C301.922 419.986 302.171 425.705 302.462 431.461C303.501 452.004 305.069 473.001 303.14 493.405C301.989 505.596 299.776 517.715 294.733 528.949C291.586 535.96 287.424 542.263 282.421 548.003C277.148 554.052 271.359 559.429 265.228 564.763C244.28 582.931 220.083 601.564 206.737 626.536M777.535 -241.061C792.94 -202.871 793.914 -157.836 777.94 -118.439C768.363 -94.7127 751.964 -77.249 742.247 -53.7818C731.4 -27.7379 717.175 -3.25085 700.441 19.4611C688.965 35.0405 676.298 49.7957 662.709 63.6578C635.949 90.9523 605.628 114.817 572.983 133.681C553.897 144.711 534.16 154.074 514.191 162.344C499.534 168.359 484.686 173.86 469.737 178.994C448.196 186.344 426.178 193.031 405.82 204.319C398.775 208.244 392.013 212.689 385.549 217.569C357.693 238.544 334.341 266.756 319.712 297.71C315.934 305.632 312.718 313.73 310.002 321.974C299.589 353.594 296.009 387.597 297.318 421.281C297.538 427.038 297.891 432.853 298.281 438.701C299.675 459.571 301.552 480.868 299.712 501.521C298.613 513.863 296.338 526.09 291.259 537.497C288.089 544.618 283.926 551.053 278.972 556.957C273.726 563.209 267.927 568.828 261.782 574.367C240.799 593.232 216.387 611.935 202.612 637.102M776.862 -239.175C793.192 -201.369 794.667 -156.451 778.824 -117.28C769.13 -93.2218 752.385 -75.6481 742.664 -51.788C731.848 -25.3564 717.647 -0.425983 700.857 22.6743C689.342 38.5223 676.596 53.5179 662.863 67.56C635.827 95.206 604.982 119.176 571.593 137.888C552.072 148.826 531.829 158.012 511.294 166.048C496.214 171.906 480.929 177.201 465.552 182.113C443.386 189.154 420.745 195.502 399.903 206.688C392.694 210.57 385.789 215.004 379.206 219.898C350.811 240.969 327.622 270.015 313.321 301.871C309.637 310.021 306.502 318.343 303.905 326.817C293.832 359.243 290.923 393.983 292.833 428.234C293.158 434.087 293.612 439.995 294.101 445.934C295.85 467.132 298.038 488.728 296.287 509.631C295.241 522.125 292.904 534.458 287.788 546.039C284.595 553.272 280.432 559.838 275.526 565.904C270.306 572.356 264.496 578.217 258.338 583.96C237.32 603.522 212.695 622.298 198.489 647.659M776.188 -237.288C793.445 -199.866 795.42 -155.066 779.709 -116.121C769.893 -91.7307 752.805 -74.0486 743.079 -49.794C732.294 -22.9734 718.118 2.399 701.271 25.8876C689.715 42.0014 676.888 57.2401 663.017 71.4621C635.704 99.4612 604.337 123.535 570.203 142.092C550.247 152.941 529.497 161.948 508.396 169.749C492.896 175.452 477.172 180.542 461.363 185.229C438.572 191.962 415.311 197.969 393.985 209.053C386.611 212.895 379.563 217.315 372.86 222.225C343.928 243.389 320.901 273.274 306.928 306.03C303.336 314.406 300.302 322.96 297.804 331.66C288.156 364.92 285.832 400.367 288.343 435.185C288.771 441.134 289.33 447.135 289.918 453.166C292.023 474.692 294.519 496.588 292.859 517.741C291.866 530.388 289.464 542.826 284.315 554.581C281.099 561.925 276.937 568.622 272.078 574.851C266.886 581.506 261.066 587.61 254.893 593.557C233.84 613.815 209.002 632.664 194.363 658.218M775.516 -235.402C793.699 -198.364 796.177 -153.68 780.596 -114.96C770.66 -90.2358 753.227 -72.4466 743.498 -47.7991C732.743 -20.5908 718.593 5.2264 701.69 29.1034C690.095 45.4858 677.189 60.9649 663.174 75.3669C635.584 103.717 603.697 127.897 568.816 146.301C548.424 157.058 527.167 165.889 505.5 173.457C489.577 179.003 473.416 183.887 457.176 188.351C433.76 194.775 409.875 200.442 388.066 211.426C380.53 215.226 373.34 219.634 366.515 224.558C337.045 245.818 314.182 276.539 300.536 310.197C297.039 318.801 294.108 327.586 291.705 336.509C282.48 370.605 280.744 406.76 283.856 442.144C284.386 448.189 285.049 454.285 285.738 460.407C288.198 482.261 291.002 504.456 289.432 525.858C288.492 538.657 286.028 551.201 280.843 563.129C277.603 570.585 273.456 577.423 268.63 583.807C263.478 590.674 257.633 597.009 251.448 603.162C230.359 624.118 205.307 643.039 190.238 668.787M774.842 -233.515C793.951 -196.862 796.93 -152.295 781.481 -113.801C771.423 -88.7449 753.648 -70.8486 743.915 -45.8054C733.19 -18.2093 719.066 8.05265 702.107 32.3165C667.564 81.7405 621.15 122.986 567.427 150.506C531.29 169.017 492.34 181.458 452.991 191.467C428.949 197.583 404.443 202.909 382.151 213.791C341.169 233.797 310.549 271.801 294.147 314.354C277.745 356.907 274.684 403.729 279.372 449.093C283.625 490.26 293.765 533.667 277.375 571.668C258.629 615.129 210.393 638.71 186.117 679.341M884.746 8.86962C850.066 -27.1093 802.453 -50.3534 752.755 -55.5643C738.616 -57.0464 723.781 -57.0072 710.867 -51.0619C673.555 -33.8809 665.41 16.7197 654.32 51.8032C640.936 94.14 628.568 136.879 611.753 178.03C602.314 201.133 588.975 225.976 565.134 233.357C540.991 240.829 515.978 227.566 492.88 217.309C465.967 205.355 436.848 196.978 407.426 198.237C378.004 199.497 348.192 211.336 329.563 234.144C314.975 252.006 308.229 274.943 303.708 297.558C291.834 356.98 293.068 418.984 307.299 477.887M884.126 6.45029C853.476 -25.3489 812.1 -45.2887 766.47 -52.4221C762.232 -53.0848 757.981 -53.6542 753.713 -54.0775C739.689 -55.4624 725.011 -55.3926 712.206 -49.6066C675.162 -32.8846 666.353 16.141 654.861 50.7514C644.674 81.4362 635.209 112.566 623.985 143.355C620.105 154.05 616.035 164.679 611.683 175.209C602.241 198.048 589.051 222.588 565.703 230.233C542.061 237.973 517.581 225.65 494.946 216.228C468.57 205.252 440.048 197.726 411.189 199.499C401.141 200.116 391.042 201.972 381.363 205.082C363.248 210.897 346.597 221.098 334.514 235.775C319.999 253.404 313.031 275.899 308.183 298.006C298.357 342.752 295.947 388.675 301.091 433.792C302.625 447.255 304.832 460.643 307.72 473.905M883.506 4.03389C853.878 -26.7056 813.59 -44.3573 767.309 -51.0365C763.109 -51.6417 758.899 -52.1913 754.673 -52.5863C740.763 -53.8713 726.243 -53.7737 713.544 -48.147C676.764 -31.8839 667.297 15.5639 655.404 49.7039C644.957 79.6938 635.381 110.355 623.96 140.92C620.052 151.48 615.967 161.983 611.614 172.391C602.172 194.969 589.128 219.205 566.274 227.113C543.131 235.12 519.185 223.737 497.016 215.151C471.179 205.151 443.249 198.478 414.956 200.765C405.104 201.563 395.197 203.554 385.691 206.753C367.902 212.729 351.493 222.925 339.47 237.408C325.03 254.807 317.84 276.856 312.663 298.457C302.154 342.181 298.706 386.731 302.64 430.731C303.813 443.861 305.642 456.938 308.147 469.924M882.886 1.61486C854.279 -28.0635 815.087 -43.4355 768.149 -49.6536C763.984 -50.2056 759.817 -50.7338 755.634 -51.0992C741.84 -52.287 727.476 -52.1559 714.886 -46.6913C678.373 -30.8872 668.251 14.9801 655.949 48.6524C645.247 77.9447 635.486 108.111 623.94 138.481C619.98 148.899 615.903 159.283 611.548 169.572C602.104 191.886 589.208 215.819 566.849 223.99C544.206 232.262 520.795 221.821 499.088 214.071C473.789 205.048 446.455 199.227 418.726 202.026C409.069 203.005 399.354 205.131 390.02 208.417C372.556 214.554 356.391 224.743 344.429 239.037C330.063 256.205 322.651 277.81 317.144 298.903C305.952 341.61 301.467 384.784 304.191 427.668C305.004 440.464 306.456 453.228 308.579 465.941M882.266 -0.801601C854.681 -29.4203 816.588 -42.5208 768.987 -48.2667C764.859 -48.764 760.733 -49.2711 756.592 -49.6068C742.912 -50.6947 728.706 -50.5357 716.223 -45.2319C679.978 -29.8867 669.207 14.4002 656.49 47.6062C645.539 76.2009 635.635 105.892 623.914 136.048C619.919 146.328 615.834 156.587 611.478 166.756C602.033 188.808 589.286 212.437 567.418 220.871C545.276 229.412 522.399 219.91 501.154 212.996C476.393 204.951 449.654 199.979 422.488 203.293C413.027 204.451 403.505 206.712 394.342 210.088C377.206 216.387 361.283 226.569 349.378 240.672C335.084 257.609 327.452 278.77 321.616 299.354C309.742 341.041 304.22 382.841 305.731 424.61C306.181 437.074 307.257 449.525 308.997 461.963M881.645 -3.21911C855.082 -30.7781 818.093 -41.6142 769.825 -46.8823C765.734 -47.3277 761.65 -47.8093 757.552 -48.1182C743.987 -49.1089 729.937 -48.9179 717.563 -43.7734C681.585 -28.8872 670.169 13.8166 657.033 46.5591C645.84 74.4576 635.79 103.671 623.892 133.613C619.862 143.757 615.769 153.892 611.412 163.939C601.966 185.728 589.366 209.054 567.992 217.752C546.349 226.559 524.009 217.997 503.225 211.921C479.001 204.85 452.858 200.732 426.257 204.561C416.992 205.899 407.662 208.296 398.671 211.76C381.86 218.219 366.178 228.396 354.337 242.307C340.117 259.013 332.264 279.731 326.098 299.807C313.544 340.475 306.982 380.901 307.284 421.553C307.373 433.684 308.072 445.824 309.427 457.987M881.025 -5.63841C855.484 -32.1377 819.602 -40.7218 770.663 -45.501C766.611 -45.8959 762.566 -46.3535 758.511 -46.6314C745.062 -47.5235 731.167 -47.3033 718.9 -42.3195C683.188 -27.8909 671.136 13.2256 657.573 45.5059C646.145 72.7069 635.94 101.445 623.864 131.172C619.8 141.179 615.697 151.19 611.339 161.115C601.892 182.642 589.44 205.663 568.558 214.625C547.415 223.699 525.61 216.078 505.288 210.838C481.602 204.744 456.055 201.478 430.017 205.82C420.948 207.338 411.81 209.869 402.991 213.424C386.506 220.044 371.068 230.214 359.285 243.934C345.14 260.41 337.064 280.684 330.569 300.252C317.332 339.899 309.734 378.951 308.824 418.487C308.551 430.285 308.873 442.113 309.847 453.999M880.405 -8.05472C855.885 -33.493 821.116 -39.8334 771.501 -44.114C767.486 -44.4598 763.482 -44.8905 759.47 -45.1401C746.135 -45.9337 732.397 -45.6829 720.239 -40.8584C684.794 -26.8901 672.111 12.6433 658.118 44.4599C646.46 70.9636 636.099 99.2248 623.842 128.74C619.744 138.612 615.63 148.496 611.273 158.301C601.824 179.564 589.52 202.283 569.132 211.509C548.489 220.85 527.217 214.167 507.36 209.763C484.214 204.646 459.261 202.232 433.788 207.088C424.914 208.785 415.969 211.452 407.322 215.095C391.163 221.876 375.969 232.041 364.245 245.571C350.172 261.814 341.876 281.644 335.05 300.706C321.132 339.334 312.495 377.012 310.374 415.433C309.74 426.898 309.684 438.415 310.274 450.026M879.785 -10.474C856.287 -34.8525 822.635 -38.9604 772.34 -42.7313C768.364 -43.0294 764.401 -43.4319 760.43 -43.6519C747.211 -44.3469 733.63 -44.0655 721.58 -39.4017C686.401 -25.8923 673.094 12.0524 658.66 43.4095C646.782 69.2159 636.255 97.0018 623.819 126.301C619.687 136.034 615.563 145.795 611.204 155.481C601.755 176.482 589.598 198.895 569.704 208.388C549.56 217.995 528.823 212.254 509.429 208.686C486.82 204.546 462.463 202.984 437.554 208.353C428.876 210.229 420.124 213.031 411.647 216.763C395.815 223.706 380.862 233.863 369.198 247.204C355.201 263.217 346.682 282.602 339.527 301.158C324.927 338.765 315.253 375.069 311.921 412.373C310.925 423.507 310.491 434.709 310.701 446.048M879.163 -12.8917C856.687 -36.2106 824.153 -38.0956 773.178 -41.3471C769.241 -41.5974 765.317 -41.9718 761.39 -42.1635C748.284 -42.7601 734.861 -42.4479 722.919 -37.9462C688.006 -24.8945 674.082 11.4632 659.203 42.3593C647.111 67.4698 636.415 94.7804 623.796 123.865C619.631 133.464 615.496 143.098 611.137 152.662C601.686 173.4 589.676 195.511 570.276 205.267C550.632 215.141 530.43 210.341 511.498 207.608C489.427 204.446 465.666 203.736 441.321 209.619C432.839 211.676 424.278 214.613 415.974 218.432C400.466 225.537 385.757 235.689 374.154 248.836C360.229 264.617 351.489 283.559 344.005 301.606C328.724 338.195 318.011 373.124 313.47 409.313C312.113 420.112 311.301 431.003 311.128 442.066M878.545 -15.3093C857.091 -37.5684 825.679 -37.2404 774.016 -39.9627C770.118 -40.1681 766.234 -40.5129 762.347 -40.675C749.357 -41.1729 736.09 -40.8316 724.255 -36.4878C689.61 -23.895 675.075 10.8742 659.742 41.3106C647.442 65.7267 636.572 92.5591 623.767 121.429C619.57 130.891 615.424 140.401 611.064 149.844C601.612 170.32 589.751 192.125 570.843 202.146C551.698 212.286 532.032 208.427 513.562 206.531C492.03 204.345 468.863 204.487 445.081 210.884C436.795 213.119 428.424 216.192 420.293 220.101C405.112 227.366 390.646 237.512 379.102 250.469C365.251 266.021 356.29 284.517 348.476 302.057C332.513 337.625 320.761 371.179 315.009 406.253C313.291 416.72 312.102 427.299 311.545 438.087M877.924 -17.7272C857.491 -38.9267 827.203 -36.3981 774.854 -38.5787C770.994 -38.7392 767.15 -39.0515 763.307 -39.1867C750.43 -39.5861 737.32 -39.2141 725.594 -35.0325C691.217 -22.8986 676.08 10.2849 660.285 40.2602C647.786 63.9819 636.734 90.3362 623.745 118.991C619.517 128.318 615.358 137.702 610.998 147.024C601.545 167.237 589.832 188.741 571.418 199.022C552.774 209.43 533.641 206.508 515.635 205.452C494.64 204.242 472.07 205.237 448.852 212.146C440.762 214.561 432.584 217.768 424.625 221.768C409.77 229.193 395.546 239.333 384.062 252.1C370.285 267.421 361.101 285.473 352.96 302.505C336.316 337.054 323.524 369.234 316.561 403.191C314.481 413.325 312.916 423.592 311.977 434.103M877.304 -20.1434C857.892 -40.2818 828.73 -35.5665 775.694 -37.1929C771.874 -37.3098 768.067 -37.5981 764.267 -37.6954C751.507 -38.0213 738.554 -37.5936 726.935 -33.5727C692.823 -21.8992 677.091 9.70024 660.831 39.213C648.14 62.2445 636.901 88.1192 623.723 116.556C619.465 125.748 615.292 135.004 610.93 144.207C601.475 164.158 589.91 185.357 571.988 195.903C553.844 206.577 535.247 204.596 517.704 204.375C497.247 204.142 475.273 205.988 452.619 213.412C444.726 216.008 436.739 219.35 428.952 223.437C414.423 231.026 400.442 241.159 389.019 253.733C375.315 268.822 365.91 286.43 357.439 302.956C340.113 336.484 326.284 367.29 318.111 400.132C315.67 409.933 313.727 419.888 312.406 430.126M876.684 -22.5626C858.294 -41.6413 830.259 -34.7506 776.532 -35.8088C772.75 -35.8836 768.985 -36.138 765.226 -36.207C752.581 -36.4358 739.784 -35.9761 728.272 -32.1159C694.427 -20.8999 678.111 9.11537 661.371 38.1626C648.497 60.5042 637.062 85.8991 623.698 114.119C619.41 123.173 615.224 132.305 610.861 141.387C601.405 161.074 589.987 181.971 572.559 192.781C554.914 203.721 536.852 202.682 519.772 203.296C499.854 204.04 478.475 206.738 456.384 214.675C448.683 217.451 440.892 220.927 433.274 225.106C419.071 232.854 405.333 242.982 393.968 255.365C380.339 270.223 370.713 287.386 361.912 303.404C343.904 335.914 329.037 365.345 319.651 397.071C316.848 406.54 314.529 416.183 312.824 426.145M876.062 -24.9805C858.695 -42.9995 831.787 -33.9458 777.37 -34.4247C773.627 -34.4574 769.901 -34.678 766.184 -34.7174C753.654 -34.849 741.014 -34.3586 729.611 -30.6577C696.033 -19.9007 679.138 8.53339 661.914 37.1151C648.863 58.7709 637.231 83.6804 623.673 111.684C619.355 120.603 615.155 129.609 610.792 138.57C601.335 157.995 590.065 178.586 573.13 189.661C555.985 200.869 538.457 200.77 521.84 202.22C502.459 203.941 481.675 207.492 460.149 215.943C452.645 218.899 445.045 222.51 437.599 226.777C423.722 234.685 410.226 244.807 398.922 257.001C385.367 271.628 375.518 288.348 366.388 303.86C347.698 335.349 331.793 363.407 321.198 394.017C318.034 403.152 315.337 412.484 313.25 422.17M875.444 -27.3982C859.098 -44.3575 833.319 -33.1548 778.209 -33.0419C774.506 -33.0338 770.819 -33.2207 767.145 -33.2304C754.73 -33.2649 742.246 -32.7425 730.95 -29.2023C697.64 -18.9043 680.178 7.95152 662.455 36.0635C649.235 57.0348 637.398 81.4605 623.648 109.246C619.3 118.031 615.087 126.911 610.723 135.75C601.265 154.912 590.142 175.2 573.7 186.539C557.055 198.014 540.061 198.853 523.908 201.142C505.066 203.838 484.876 208.241 463.915 217.205C456.607 220.341 449.199 224.086 441.926 228.443C428.374 236.514 415.121 246.63 403.879 258.632C390.397 273.027 380.327 289.303 370.867 304.307C351.496 334.777 334.553 361.46 322.747 390.953C319.219 399.755 316.146 408.774 313.676 418.186M874.822 -29.8159C859.497 -45.7141 834.848 -32.3776 779.046 -31.6562C775.382 -31.6087 771.733 -31.759 768.102 -31.7391C755.802 -31.6736 743.482 -31.0996 732.288 -27.7425C699.264 -17.8364 681.224 7.3796 662.997 35.0175C649.615 55.3102 637.568 79.2462 623.624 106.811C619.248 115.461 615.018 124.215 610.654 132.933C601.195 151.833 590.22 171.816 574.271 183.42C558.124 195.162 541.667 196.942 525.977 200.064C507.673 203.738 488.079 208.993 467.682 218.471C460.569 221.786 453.354 225.668 446.252 230.113C433.028 238.345 420.017 248.454 408.833 260.265C395.424 274.431 385.132 290.262 375.344 304.758C355.291 334.207 337.31 359.517 324.292 387.895C320.404 396.364 316.953 405.072 314.101 414.21M874.204 -32.2335C859.901 -47.072 836.379 -31.6131 779.887 -30.272C776.261 -30.1851 772.653 -30.2974 769.065 -30.2507C756.879 -30.088 744.716 -29.4834 733.632 -26.2856C700.873 -16.8398 682.282 6.80916 663.545 33.9674C650.011 53.5842 637.746 77.0292 623.606 104.375C619.203 112.891 614.957 121.518 610.591 130.116C601.13 148.752 590.303 168.433 574.849 180.301C559.203 192.312 543.281 195.03 528.052 198.99C510.286 203.641 491.288 209.747 471.453 219.739C464.537 223.234 457.513 227.251 450.583 231.784C437.685 240.177 424.917 250.281 413.793 261.901C400.457 275.835 389.946 291.224 379.827 305.212C359.093 333.642 340.072 357.579 325.845 384.839C321.595 392.975 317.769 401.369 314.533 410.232M873.582 -34.6512C860.3 -48.4314 837.908 -30.8638 780.723 -28.8863C777.138 -28.7615 773.568 -28.8372 770.022 -28.7594C757.951 -28.4968 745.944 -27.863 734.966 -24.826C702.474 -15.8377 683.345 6.24857 664.083 32.92C650.402 51.8652 637.914 74.8163 623.577 101.939C619.148 110.321 614.883 118.819 610.518 127.297C601.057 145.672 590.379 165.049 575.416 177.181C560.269 189.457 544.882 193.116 530.115 197.913C512.887 203.539 494.484 210.497 475.213 221.004C468.493 224.679 461.662 228.83 454.903 233.453C442.329 242.007 429.804 252.104 418.74 263.533C405.478 277.236 394.745 292.18 384.297 305.661C362.881 333.07 342.821 355.632 327.386 381.778C322.774 389.581 318.57 397.664 314.951 406.252M872.962 -37.0704C860.702 -49.7909 839.434 -30.1314 781.561 -27.5049C778.014 -27.3435 774.485 -27.3785 770.982 -27.2739C759.026 -26.9141 747.176 -26.2496 736.307 -23.3719C704.08 -14.844 684.421 5.68789 664.627 31.8683C650.806 50.1476 638.094 72.6005 623.555 99.5013C619.099 107.749 614.817 116.121 610.451 124.476C600.988 142.587 590.457 161.662 575.988 174.057C561.34 186.6 546.487 191.199 532.184 196.832C515.494 203.436 497.687 211.245 478.982 222.266C472.457 226.119 465.818 230.408 459.232 235.119C446.984 243.834 434.702 253.925 423.699 265.164C410.512 278.636 399.556 293.136 388.779 306.108C366.682 332.499 345.583 353.686 328.935 378.716C323.963 386.185 319.382 393.957 315.379 402.269M872.342 -39.4867C861.103 -51.1462 840.961 -29.413 782.401 -26.1194C778.893 -25.9214 775.402 -25.917 771.942 -25.7828C760.1 -25.323 748.406 -24.6293 737.646 -21.9137C705.684 -13.8448 685.508 5.13986 665.168 30.8194C651.214 48.4369 638.271 70.3876 623.529 97.0651C619.046 105.179 614.749 113.422 610.38 121.658C600.917 139.507 590.532 158.277 576.558 170.935C562.412 183.745 548.093 189.284 534.252 195.754C518.099 203.335 500.887 211.996 482.746 223.529C476.417 227.563 469.971 231.986 463.556 236.786C451.636 245.663 439.596 255.748 428.65 266.794C415.537 280.035 404.36 294.091 393.254 306.557C370.475 331.927 348.338 351.74 330.48 375.654C325.145 382.791 320.187 390.25 315.803 398.286M871.721 -41.9047C861.504 -52.5044 842.484 -28.7101 783.237 -24.734C779.768 -24.5022 776.317 -24.457 772.9 -24.2931C761.173 -23.7335 749.632 -23.0328 738.984 -20.4542C707.273 -12.9085 686.602 4.60299 665.71 29.7733C651.629 46.736 638.45 68.1774 623.506 94.6315C618.997 102.612 614.682 110.727 610.313 118.842C600.847 136.427 590.612 154.894 577.13 167.816C563.483 180.893 549.699 187.373 536.322 194.678C520.709 203.235 504.091 212.749 486.514 224.797C480.382 229.01 474.126 233.569 467.884 238.457C456.288 247.495 444.492 257.573 433.607 268.43C420.566 281.441 409.168 295.052 397.732 307.011C374.271 331.362 351.096 349.801 332.028 372.598C326.333 379.402 320.996 386.548 316.23 394.312M871.102 -44.3223C861.907 -53.8623 844.006 -28.0235 784.078 -23.3496C780.647 -23.0813 777.237 -22.9954 773.861 -22.8032C762.249 -22.1436 750.864 -21.4137 740.324 -18.9972C708.88 -11.9119 687.709 4.07343 666.256 28.7232C652.055 45.0383 638.637 65.9661 623.484 92.194C618.95 100.042 614.616 108.029 610.246 116.023C600.78 133.347 590.69 151.51 577.703 164.696C564.555 178.039 551.306 185.46 538.392 193.6C523.316 203.135 507.294 213.5 490.28 226.061C484.341 230.455 478.28 235.146 472.209 240.126C460.939 249.324 449.385 259.397 438.562 270.062C425.596 282.843 413.976 296.008 402.21 307.46C378.067 330.79 353.855 347.856 333.574 369.538C327.517 376.01 321.803 382.843 316.655 390.33M870.481 -46.74C862.308 -55.2203 845.521 -27.3539 784.915 -21.9668C781.523 -21.6647 778.151 -21.5366 774.819 -21.3162C763.322 -20.5567 752.095 -19.799 741.662 -17.5404C710.485 -10.914 688.823 3.5564 666.796 27.6729C652.479 43.3474 638.818 63.7546 623.458 89.7578C618.899 97.4734 614.545 105.33 610.176 113.205C600.708 130.265 590.767 148.124 578.272 161.575C565.625 175.186 552.91 183.544 540.458 192.523C525.92 203.035 510.494 214.251 494.046 227.326C488.303 231.9 482.433 236.727 476.535 241.795C465.591 251.155 454.281 261.222 443.516 271.696C430.623 284.244 418.782 296.966 406.687 307.91C381.863 330.222 356.612 345.912 335.121 366.478C328.703 372.617 322.612 379.139 317.08 386.351M869.861 -49.1591C862.71 -56.5798 847.036 -26.7038 785.753 -20.5826C782.398 -20.2481 779.067 -20.0695 775.778 -19.8265C764.397 -18.946 753.324 -18.18 743.001 -16.0821C712.09 -9.91327 689.949 3.05203 667.339 26.6255C652.912 41.6649 639.006 61.5503 623.434 87.3216C618.853 94.9047 614.478 102.633 610.108 110.387C600.64 127.185 590.846 144.74 578.844 158.454C566.696 172.331 554.517 181.631 542.527 191.446C528.527 202.932 513.697 215.003 497.811 228.591C492.265 233.345 486.586 238.307 480.861 243.464C470.243 252.985 459.175 263.044 448.47 273.329C435.652 285.647 423.588 297.925 411.164 308.362C385.658 329.653 359.37 343.97 336.668 363.419C329.888 369.225 323.42 375.435 317.505 382.372M869.241 -51.5756C863.11 -57.9352 848.545 -26.0678 786.592 -19.1971C783.276 -18.8288 779.987 -18.6081 776.738 -18.3382C765.473 -17.3592 754.557 -16.5625 744.34 -14.6268C713.696 -8.91691 691.084 2.56148 667.88 25.5738C653.347 39.9879 639.192 59.3415 623.41 84.8839C618.804 92.3357 614.409 99.9343 610.038 107.565C600.568 124.1 590.924 141.352 579.413 155.33C567.765 169.474 556.121 179.714 544.594 190.366C531.131 202.83 516.897 215.751 501.574 229.853C496.223 234.786 490.738 239.883 485.183 245.129C474.892 254.811 464.066 264.866 453.42 274.958C440.676 287.045 428.39 298.878 415.637 308.808C389.45 329.079 362.122 342.022 338.21 360.357C331.068 365.83 324.223 371.728 317.927 378.39M868.621 -53.9948C863.512 -59.2947 850.049 -25.4513 787.432 -17.8144C784.153 -17.4137 780.904 -17.1493 777.697 -16.8498C766.546 -15.7723 755.787 -14.9451 745.679 -13.1686C715.303 -7.91769 692.226 2.08779 668.423 24.5263C653.787 38.3235 639.383 57.1398 623.386 82.4475C618.758 89.7696 614.342 97.237 609.969 104.748C600.498 121.021 591.001 137.969 579.985 152.212C568.836 166.622 557.728 177.804 546.664 189.29C533.741 202.73 520.101 216.503 505.342 231.12C500.187 236.233 494.893 241.466 489.511 246.8C479.544 256.644 468.963 266.691 458.378 276.593C445.707 288.448 433.199 299.838 420.117 309.259C393.248 328.51 364.882 340.078 339.759 357.297C332.257 362.437 325.034 368.023 318.355 374.411M868.001 -56.4111C863.915 -60.6512 851.549 -24.8528 788.27 -16.4273C785.03 -15.9957 781.819 -15.6863 778.657 -15.3585C767.622 -14.1824 757.019 -13.3259 747.018 -11.7102C716.908 -6.91965 693.377 1.63115 668.967 23.4776C654.23 36.6664 639.578 54.9369 623.364 80.0128C618.715 87.2037 614.277 94.5413 609.903 101.931C600.431 117.94 591.082 134.585 580.559 149.093C569.911 163.771 559.335 175.891 548.735 188.214C536.349 202.631 523.304 217.258 509.109 232.387C504.151 237.68 499.049 243.047 493.836 248.471C484.195 258.475 473.857 268.517 463.331 278.227C450.733 289.853 438.004 300.798 424.594 309.712C397.044 327.944 367.639 338.137 341.305 354.239C333.441 359.047 325.842 364.321 318.779 370.433M867.381 -58.8301C864.317 -62.0106 853.04 -24.2739 789.108 -15.0457C785.904 -14.5831 782.737 -14.229 779.615 -13.8716C768.694 -12.5969 758.248 -11.7097 748.357 -10.2547C718.513 -5.92173 694.535 1.18976 669.509 22.426C654.674 35.0147 639.772 52.734 623.338 77.5738C618.667 84.6349 614.207 91.8385 609.833 99.1099C600.36 114.857 591.157 131.198 581.13 145.968C570.981 160.912 560.94 173.973 550.802 187.132C538.955 202.527 526.506 218.005 512.877 233.647C508.113 239.119 503.204 244.623 498.164 250.137C488.851 260.302 478.753 270.339 468.288 279.858C455.763 291.252 442.814 301.752 429.072 310.161C400.841 327.374 370.397 336.192 342.852 351.18C334.627 355.654 326.649 360.615 319.205 366.452M866.76 -61.248C864.716 -63.3674 854.525 -23.7134 789.946 -13.6617C786.779 -13.1695 783.653 -12.769 780.575 -12.3833C769.77 -11.0101 759.481 -10.0923 749.695 -8.79797C720.118 -4.92396 695.698 0.767705 670.05 21.377C655.119 33.3753 639.968 50.5379 623.315 75.1375C618.623 82.0688 614.14 89.1412 609.766 96.2913C600.291 111.775 591.237 127.812 581.702 142.847C572.052 158.057 562.547 172.06 552.872 186.055C541.563 202.426 529.709 218.756 516.642 234.912C512.075 240.564 507.358 246.202 502.489 251.805C493.501 262.132 483.647 272.161 473.243 281.49C460.793 292.653 447.62 302.71 433.55 310.61C404.636 326.802 373.155 334.247 344.4 348.117C335.812 352.26 327.457 356.908 319.631 362.472M866.14 -63.6644C865.118 -64.7241 856.005 -23.1724 790.784 -12.2748C787.653 -11.7516 784.571 -11.306 781.533 -10.8907C770.843 -9.42033 760.71 -8.47048 751.034 -7.33688C721.724 -3.92182 696.867 0.370935 670.592 20.3309C655.562 31.7486 640.196 48.3658 623.289 72.704C618.584 79.5125 614.07 86.4468 609.695 93.4756C600.22 108.698 591.313 124.43 582.271 139.728C573.122 155.207 564.152 170.148 554.938 184.98C544.167 202.329 532.909 219.51 520.406 236.181C516.035 242.013 511.51 247.786 506.813 253.477C498.15 263.965 488.539 273.988 478.194 283.126C465.818 294.058 452.425 303.671 438.025 311.064C408.43 326.238 375.91 332.307 345.945 345.062C336.997 348.871 328.264 353.208 320.056 358.495M865.52 -66.0835C865.52 -66.0835 857.477 -22.6522 791.623 -10.8919C725.769 0.868451 683.649 -14.8761 623.267 70.2664C581.542 129.103 555.636 198.301 511.141 255.143C492.834 278.529 469.549 298.869 442.504 311.512C412.227 325.665 378.67 330.361 347.492 342C338.182 345.477 329.074 349.5 320.481 354.513" stroke="white" stroke-width="0.197078" stroke-miterlimit="10"/>
</svg>
