<svg id="visual" viewBox="0 0 1440 600" width="1440" height="600" xmlns="http://www.w3.org/2000/svg" xmlns:xlink="http://www.w3.org/1999/xlink" version="1.1"><g stroke-width="1" stroke-linejoin="bevel"><path d="M581 211L287 210L563 406Z" fill="#19435d" stroke="#19435d"></path><path d="M287 210L287 401L563 406Z" fill="#00101c" stroke="#00101c"></path><path d="M581 211L570 0L287 210Z" fill="#00101c" stroke="#00101c"></path><path d="M570 0L288 0L287 210Z" fill="#297ea6" stroke="#297ea6"></path><path d="M287 401L296 600L563 406Z" fill="#15384f" stroke="#15384f"></path><path d="M296 600L590 600L563 406Z" fill="#112e42" stroke="#112e42"></path><path d="M877 406L867 208L581 211Z" fill="#205a7a" stroke="#205a7a"></path><path d="M877 406L581 211L563 406Z" fill="#081a28" stroke="#081a28"></path><path d="M581 211L850 0L570 0Z" fill="#1d4e6b" stroke="#1d4e6b"></path><path d="M288 0L0 202L287 210Z" fill="#112e42" stroke="#112e42"></path><path d="M287 210L0 390L287 401Z" fill="#19435d" stroke="#19435d"></path><path d="M287 401L0 600L296 600Z" fill="#15384f" stroke="#15384f"></path><path d="M0 202L0 390L287 210Z" fill="#205a7a" stroke="#205a7a"></path><path d="M590 600L877 406L563 406Z" fill="#297ea6" stroke="#297ea6"></path><path d="M867 208L850 0L581 211Z" fill="#297ea6" stroke="#297ea6"></path><path d="M288 0L0 0L0 202Z" fill="#15384f" stroke="#15384f"></path><path d="M590 600L864 600L877 406Z" fill="#15384f" stroke="#15384f"></path><path d="M0 390L0 600L287 401Z" fill="#00101c" stroke="#00101c"></path><path d="M877 406L1151 398L867 208Z" fill="#1d4e6b" stroke="#1d4e6b"></path><path d="M867 208L1136 0L850 0Z" fill="#1d4e6b" stroke="#1d4e6b"></path><path d="M1149 600L1151 398L877 406Z" fill="#081a28" stroke="#081a28"></path><path d="M1151 398L1163 201L867 208Z" fill="#205a7a" stroke="#205a7a"></path><path d="M1163 201L1136 0L867 208Z" fill="#15384f" stroke="#15384f"></path><path d="M1440 406L1440 193L1163 201Z" fill="#297ea6" stroke="#297ea6"></path><path d="M864 600L1149 600L877 406Z" fill="#112e42" stroke="#112e42"></path><path d="M1440 406L1163 201L1151 398Z" fill="#297ea6" stroke="#297ea6"></path><path d="M1163 201L1440 0L1136 0Z" fill="#205a7a" stroke="#205a7a"></path><path d="M1149 600L1440 406L1151 398Z" fill="#277297" stroke="#277297"></path><path d="M1440 193L1440 0L1163 201Z" fill="#1d4e6b" stroke="#1d4e6b"></path><path d="M1149 600L1440 600L1440 406Z" fill="#246688" stroke="#246688"></path></g></svg>